<?xml version='1.0' encoding='UTF-8'?>
<svg viewBox="-4 -2 32 32" xmlns="http://www.w3.org/2000/svg" xmlns:xlink="http://www.w3.org/1999/xlink">
  <g id="Layer_1" transform="translate(-4, -2)" style="enable-background:new 0 0 32 32">
    <g id="Copy">
      <path d="M21, 2L11, 2C10.5, 2 10, 2.5 10, 3L10, 8L5, 8C4.5, 8 4, 8.5 4, 9L4, 29C4, 29.5 4.5, 30 5, 30L21, 30C21.5, 30 22, 29.5 22, 29L22, 24L27, 24C27.5, 24 28, 23.5 28, 23L28, 9L21, 2zM20, 28L6, 28L6, 10L14, 10L14, 15C14, 15.5 14.5, 16 15, 16L20, 16L20, 28zM26, 22L22, 22L22, 15L15, 8L12, 8L12, 4L20, 4L20, 9C20, 9.5 20.5, 10 21, 10L26, 10L26, 22z" fill="#039C23" class="Green" />
    </g>
  </g>
</svg>