<?xml version='1.0' encoding='UTF-8'?>
<svg viewBox="-8 -2 32 32" xmlns="http://www.w3.org/2000/svg" xmlns:xlink="http://www.w3.org/1999/xlink">
  <g id="Layer_1" transform="translate(-8, -2)" style="enable-background:new 0 0 32 32">
    <g id="Attach">
      <path d="M20, 10L20, 23C20, 25.8 17.8, 28 15, 28C12.2, 28 10, 25.8 10, 23L10, 7C10, 5.3 11.3, 4 13, 4C14.7, 4 16, 5.3 16, 7L16, 23C16, 23.6 15.6, 24 15, 24C14.4, 24 14, 23.6 14, 23L14, 10L12, 10L12, 23C12, 24.7 13.3, 26 15, 26C16.7, 26 18, 24.7 18, 23L18, 7C18, 4.2 15.8, 2 13, 2C10.2, 2 8, 4.2 8, 7L8, 23C8, 26.9 11.1, 30 15, 30C18.9, 30 22, 26.9 22, 23L22, 10L20, 10z" fill="#727272" class="Black" />
    </g>
  </g>
</svg>